<svg xmlns="http://www.w3.org/2000/svg" xmlns:xlink="http://www.w3.org/1999/xlink" viewBox="0 0 768 220"><g fill="#0D0D0D"><path d="M77.28 125.68L77.28 125.68Q67.56 125.68 60.12 122.20Q52.68 118.72 48.48 112.24Q44.28 105.76 44.28 96.64L44.28 96.64L44.28 93.28L59.88 93.28L59.88 96.64Q59.88 104.20 64.56 107.98Q69.24 111.76 77.28 111.76L77.28 111.76Q85.44 111.76 89.46 108.52Q93.48 105.28 93.48 100.24L93.48 100.24Q93.48 96.76 91.50 94.60Q89.52 92.44 85.74 91.06Q81.96 89.68 76.56 88.48L76.56 88.48L73.80 87.88Q65.16 85.96 58.98 83.02Q52.80 80.08 49.50 75.28Q46.20 70.48 46.20 62.80L46.20 62.80Q46.20 55.12 49.86 49.66Q53.52 44.20 60.18 41.26Q66.84 38.32 75.84 38.32L75.84 38.32Q84.84 38.32 91.86 41.38Q98.88 44.44 102.90 50.50Q106.92 56.56 106.92 65.68L106.92 65.68L106.92 69.28L91.32 69.28L91.32 65.68Q91.32 60.88 89.46 57.94Q87.60 55.00 84.12 53.62Q80.64 52.24 75.84 52.24L75.84 52.24Q68.64 52.24 65.22 54.94Q61.80 57.64 61.80 62.32L61.80 62.32Q61.80 65.44 63.42 67.60Q65.04 69.76 68.28 71.20Q71.52 72.64 76.56 73.72L76.56 73.72L79.32 74.32Q88.32 76.24 94.98 79.24Q101.64 82.24 105.36 87.16Q109.08 92.08 109.08 99.76L109.08 99.76Q109.08 107.44 105.18 113.26Q101.28 119.08 94.14 122.38Q87.00 125.68 77.28 125.68M160.92 124.00L145.08 124.00L145.08 54.40L120.60 54.40L120.60 40.00L185.40 40.00L185.40 54.40L160.92 54.40L160.92 124.00M255.72 124.00L201.00 124.00L201.00 40.00L255.00 40.00L255.00 54.40L216.84 54.40L216.84 74.44L251.64 74.44L251.64 88.84L216.84 88.84L216.84 109.60L255.72 109.60L255.72 124.00M282.84 124.00L266.52 124.00L288.60 40.00L316.20 40.00L338.28 124.00L321.96 124.00L317.40 105.52L287.40 105.52L282.84 124.00M301.32 49.96L291.12 90.88L313.68 90.88L303.48 49.96L301.32 49.96M385.32 124.00L350.76 124.00L350.76 110.08L361.80 110.08L361.80 53.92L350.76 53.92L350.76 40.00L385.32 40.00Q402.24 40.00 411.06 48.58Q419.88 57.16 419.88 74.08L419.88 74.08L419.88 89.92Q419.88 106.84 411.06 115.42Q402.24 124.00 385.32 124.00L385.32 124.00M377.64 54.40L377.64 109.60L385.56 109.60Q395.16 109.60 399.60 104.56Q404.04 99.52 404.04 90.40L404.04 90.40L404.04 73.60Q404.04 64.36 399.60 59.38Q395.16 54.40 385.56 54.40L385.56 54.40L377.64 54.40M453.72 124.00L437.88 124.00L437.88 40.00L490.68 40.00L490.68 54.40L453.72 54.40L453.72 74.68L487.80 74.68L487.80 89.08L453.72 89.08L453.72 124.00M517.32 124.00L501.00 124.00L523.08 40.00L550.68 40.00L572.76 124.00L556.44 124.00L551.88 105.52L521.88 105.52L517.32 124.00M535.80 49.96L525.60 90.88L548.16 90.88L537.96 49.96L535.80 49.96M616.80 125.68L616.80 125.68Q607.08 125.68 599.64 122.20Q592.20 118.72 588.00 112.24Q583.80 105.76 583.80 96.64L583.80 96.64L583.80 93.28L599.40 93.28L599.40 96.64Q599.40 104.20 604.08 107.98Q608.76 111.76 616.80 111.76L616.80 111.76Q624.96 111.76 628.98 108.52Q633.00 105.28 633.00 100.24L633.00 100.24Q633.00 96.76 631.02 94.60Q629.04 92.44 625.26 91.06Q621.48 89.68 616.08 88.48L616.08 88.48L613.32 87.88Q604.68 85.96 598.50 83.02Q592.32 80.08 589.02 75.28Q585.72 70.48 585.72 62.80L585.72 62.80Q585.72 55.12 589.38 49.66Q593.04 44.20 599.70 41.26Q606.36 38.32 615.36 38.32L615.36 38.32Q624.36 38.32 631.38 41.38Q638.40 44.44 642.42 50.50Q646.44 56.56 646.44 65.68L646.44 65.68L646.44 69.28L630.84 69.28L630.84 65.68Q630.84 60.88 628.98 57.94Q627.12 55.00 623.64 53.62Q620.16 52.24 615.36 52.24L615.36 52.24Q608.16 52.24 604.74 54.94Q601.32 57.64 601.32 62.32L601.32 62.32Q601.32 65.44 602.94 67.60Q604.56 69.76 607.80 71.20Q611.04 72.64 616.08 73.72L616.08 73.72L618.84 74.32Q627.84 76.24 634.50 79.24Q641.16 82.24 644.88 87.16Q648.60 92.08 648.60 99.76L648.60 99.76Q648.60 107.44 644.70 113.26Q640.80 119.08 633.66 122.38Q626.52 125.68 616.80 125.68M700.44 124.00L684.60 124.00L684.60 54.40L660.12 54.40L660.12 40.00L724.92 40.00L724.92 54.40L700.44 54.40L700.44 124.00"/><path d="M125.55 182.00L121.88 182.00L121.88 158.20L131.87 158.20Q134.08 158.20 135.77 158.97Q137.45 159.73 138.38 161.16Q139.32 162.59 139.32 164.56L139.32 164.56L139.32 164.93Q139.32 167.18 138.25 168.52Q137.18 169.86 135.65 170.41L135.65 170.41L135.65 170.95Q136.94 171.02 137.72 171.82Q138.50 172.62 138.50 174.11L138.50 174.11L138.50 182.00L134.80 182.00L134.80 174.62Q134.80 173.70 134.32 173.16Q133.85 172.62 132.79 172.62L132.79 172.62L125.55 172.62L125.55 182.00M125.55 161.53L125.55 169.28L131.47 169.28Q133.44 169.28 134.53 168.28Q135.61 167.28 135.61 165.54L135.61 165.54L135.61 165.27Q135.61 163.54 134.54 162.53Q133.47 161.53 131.47 161.53L131.47 161.53L125.55 161.53M177.23 182.00L162.07 182.00L162.07 158.20L177.06 158.20L177.06 161.53L165.74 161.53L165.74 168.37L176.11 168.37L176.11 171.70L165.74 171.70L165.74 178.67L177.23 178.67L177.23 182.00M207.86 182.48L207.86 182.48Q205.18 182.48 203.10 181.52Q201.03 180.57 199.86 178.72Q198.68 176.87 198.68 174.21L198.68 174.21L198.68 173.36L202.32 173.36L202.32 174.21Q202.32 176.73 203.83 177.99Q205.35 179.25 207.86 179.25L207.86 179.25Q210.41 179.25 211.71 178.18Q213.00 177.10 213.00 175.40L213.00 175.40Q213.00 174.28 212.39 173.57Q211.77 172.85 210.65 172.43Q209.53 172.00 207.97 171.63L207.97 171.63L206.71 171.32Q204.43 170.78 202.75 169.98Q201.06 169.18 200.15 167.86Q199.23 166.53 199.23 164.46L199.23 164.46Q199.23 162.35 200.26 160.85Q201.30 159.36 203.14 158.54Q204.97 157.72 207.46 157.72L207.46 157.72Q209.94 157.72 211.89 158.57Q213.85 159.42 214.97 161.09Q216.09 162.76 216.09 165.27L216.09 165.27L216.09 166.50L212.45 166.50L212.45 165.27Q212.45 163.74 211.82 162.79Q211.20 161.84 210.07 161.40Q208.95 160.95 207.46 160.95L207.46 160.95Q205.28 160.95 204.07 161.85Q202.87 162.76 202.87 164.35L202.87 164.35Q202.87 165.44 203.39 166.14Q203.92 166.84 204.94 167.28Q205.96 167.72 207.49 168.06L207.49 168.06L208.75 168.37Q211.06 168.88 212.83 169.68Q214.60 170.47 215.62 171.83Q216.64 173.19 216.64 175.34L216.64 175.34Q216.64 177.48 215.56 179.08Q214.49 180.67 212.52 181.57Q210.55 182.48 207.86 182.48M254.34 182.00L239.18 182.00L239.18 158.20L254.17 158.20L254.17 161.53L242.85 161.53L242.85 168.37L253.22 168.37L253.22 171.70L242.85 171.70L242.85 178.67L254.34 178.67L254.34 182.00M278.92 182.00L275.12 182.00L281.92 158.20L288.38 158.20L295.14 182.00L291.37 182.00L289.80 176.39L280.49 176.39L278.92 182.00M284.87 160.48L281.41 172.99L288.89 172.99L285.42 160.48L284.87 160.48M320.74 182.00L317.07 182.00L317.07 158.20L327.07 158.20Q329.28 158.20 330.96 158.97Q332.64 159.73 333.58 161.16Q334.51 162.59 334.51 164.56L334.51 164.56L334.51 164.93Q334.51 167.18 333.44 168.52Q332.37 169.86 330.84 170.41L330.84 170.41L330.84 170.95Q332.13 171.02 332.92 171.82Q333.70 172.62 333.70 174.11L333.70 174.11L333.70 182.00L329.99 182.00L329.99 174.62Q329.99 173.70 329.52 173.16Q329.04 172.62 327.99 172.62L327.99 172.62L320.74 172.62L320.74 182.00M320.74 161.53L320.74 169.28L326.66 169.28Q328.63 169.28 329.72 168.28Q330.81 167.28 330.81 165.54L330.81 165.54L330.81 165.27Q330.81 163.54 329.74 162.53Q328.67 161.53 326.66 161.53L326.66 161.53L320.74 161.53M366.10 182.48L366.10 182.48Q361.75 182.48 359.20 180.01Q356.65 177.55 356.65 172.89L356.65 172.89L356.65 167.31Q356.65 162.65 359.20 160.19Q361.75 157.72 366.10 157.72L366.10 157.72Q370.38 157.72 372.71 160.10Q375.04 162.48 375.04 166.60L375.04 166.60L375.04 166.80L371.40 166.80L371.40 166.50Q371.40 164.08 370.09 162.55Q368.79 161.02 366.10 161.02L366.10 161.02Q363.38 161.02 361.85 162.67Q360.32 164.32 360.32 167.24L360.32 167.24L360.32 172.96Q360.32 175.85 361.85 177.51Q363.38 179.18 366.10 179.18L366.10 179.18Q368.79 179.18 370.09 177.63Q371.40 176.08 371.40 173.70L371.40 173.70L371.40 173.13L375.04 173.13L375.04 173.60Q375.04 177.72 372.71 180.10Q370.38 182.48 366.10 182.48M401.49 182.00L397.82 182.00L397.82 158.20L401.49 158.20L401.49 168.40L411.49 168.40L411.49 158.20L415.16 158.20L415.16 182.00L411.49 182.00L411.49 171.73L401.49 171.73L401.49 182.00M474.46 182.48L474.46 182.48Q471.91 182.48 469.90 181.37Q467.90 180.27 466.74 178.12Q465.58 175.98 465.58 172.89L465.58 172.89L465.58 167.31Q465.58 162.65 468.13 160.19Q470.68 157.72 475.04 157.72L475.04 157.72Q479.32 157.72 481.63 160.05Q483.94 162.38 483.94 166.29L483.94 166.29L483.94 166.46L480.31 166.46L480.31 166.19Q480.31 164.73 479.73 163.56Q479.15 162.38 477.99 161.70Q476.84 161.02 475.04 161.02L475.04 161.02Q472.32 161.02 470.79 162.67Q469.26 164.32 469.26 167.24L469.26 167.24L469.26 172.96Q469.26 175.85 470.79 177.53Q472.32 179.21 475.07 179.21L475.07 179.21Q477.79 179.21 479.05 177.72Q480.31 176.22 480.31 173.84L480.31 173.84L480.31 173.40L473.91 173.40L473.91 170.24L483.94 170.24L483.94 182.00L480.54 182.00L480.54 179.59L480.00 179.59Q479.69 180.23 479.10 180.91Q478.50 181.59 477.40 182.03Q476.29 182.48 474.46 182.48M511.04 182.00L507.37 182.00L507.37 158.20L517.37 158.20Q519.58 158.20 521.26 158.97Q522.94 159.73 523.88 161.16Q524.81 162.59 524.81 164.56L524.81 164.56L524.81 164.93Q524.81 167.18 523.74 168.52Q522.67 169.86 521.14 170.41L521.14 170.41L521.14 170.95Q522.43 171.02 523.21 171.82Q524.00 172.62 524.00 174.11L524.00 174.11L524.00 182.00L520.29 182.00L520.29 174.62Q520.29 173.70 519.81 173.16Q519.34 172.62 518.28 172.62L518.28 172.62L511.04 172.62L511.04 182.00M511.04 161.53L511.04 169.28L516.96 169.28Q518.93 169.28 520.02 168.28Q521.11 167.28 521.11 165.54L521.11 165.54L521.11 165.27Q521.11 163.54 520.03 162.53Q518.96 161.53 516.96 161.53L516.96 161.53L511.04 161.53M556.50 182.48L556.50 182.48Q552.11 182.48 549.53 180.01Q546.95 177.55 546.95 172.89L546.95 172.89L546.95 167.31Q546.95 162.65 549.53 160.19Q552.11 157.72 556.50 157.72L556.50 157.72Q560.88 157.72 563.49 160.19Q566.09 162.65 566.09 167.31L566.09 167.31L566.09 172.89Q566.09 177.55 563.49 180.01Q560.88 182.48 556.50 182.48M556.50 179.18L556.50 179.18Q559.32 179.18 560.85 177.53Q562.38 175.88 562.38 173.02L562.38 173.02L562.38 167.18Q562.38 164.32 560.85 162.67Q559.32 161.02 556.50 161.02L556.50 161.02Q553.75 161.02 552.18 162.67Q550.62 164.32 550.62 167.18L550.62 167.18L550.62 173.02Q550.62 175.88 552.18 177.53Q553.75 179.18 556.50 179.18M598.05 182.48L598.05 182.48Q595.23 182.48 593.20 181.46Q591.18 180.44 590.07 178.51Q588.97 176.59 588.97 173.84L588.97 173.84L588.97 158.20L592.68 158.20L592.68 173.94Q592.68 176.46 594.07 177.82Q595.46 179.18 598.05 179.18L598.05 179.18Q600.63 179.18 602.03 177.82Q603.42 176.46 603.42 173.94L603.42 173.94L603.42 158.20L607.09 158.20L607.09 173.84Q607.09 176.59 606.00 178.51Q604.92 180.44 602.88 181.46Q600.84 182.48 598.05 182.48M634.26 182.00L630.59 182.00L630.59 158.20L640.04 158.20Q642.21 158.20 643.93 159.07Q645.65 159.93 646.62 161.51Q647.59 163.10 647.59 165.31L647.59 165.31L647.59 165.75Q647.59 167.96 646.58 169.56Q645.58 171.15 643.88 172.00Q642.18 172.85 640.04 172.85L640.04 172.85L634.26 172.85L634.26 182.00M634.26 161.53L634.26 169.52L639.66 169.52Q641.60 169.52 642.76 168.50Q643.91 167.48 643.91 165.71L643.91 165.71L643.91 165.37Q643.91 163.57 642.76 162.55Q641.60 161.53 639.66 161.53L639.66 161.53L634.26 161.53"/></g></svg>