<svg xmlns="http://www.w3.org/2000/svg" xmlns:xlink="http://www.w3.org/1999/xlink" viewBox="0 0 757 220"><g fill="#0D0D0D"><path d="M77.06 125.68Q67.34 125.68 59.90 122.20Q52.46 118.72 48.26 112.24Q44.06 105.76 44.06 96.64L44.06 93.28L59.66 93.28L59.66 96.64Q59.66 104.20 64.34 107.98Q69.02 111.76 77.06 111.76Q85.22 111.76 89.24 108.52Q93.26 105.28 93.26 100.24Q93.26 96.76 91.28 94.60Q89.30 92.44 85.52 91.06Q81.74 89.68 76.34 88.48L73.58 87.88Q64.94 85.96 58.76 83.02Q52.58 80.08 49.28 75.28Q45.98 70.48 45.98 62.80Q45.98 55.12 49.64 49.66Q53.30 44.20 59.96 41.26Q66.62 38.32 75.62 38.32Q84.62 38.32 91.64 41.38Q98.66 44.44 102.68 50.50Q106.70 56.56 106.70 65.68L106.70 69.28L91.10 69.28L91.10 65.68Q91.10 60.88 89.24 57.94Q87.38 55 83.90 53.62Q80.42 52.24 75.62 52.24Q68.42 52.24 NaN 54.94Q61.58 57.64 61.58 62.32Q61.58 65.44 63.20 67.60Q64.82 69.76 68.06 71.20Q71.30 72.64 76.34 73.72L79.10 74.32Q88.10 76.24 94.76 79.24Q101.42 82.24 105.14 87.16Q108.86 92.08 108.86 99.76Q108.86 107.44 104.96 113.26Q101.06 119.08 93.92 122.38Q86.78 125.68 77.06 125.68M158.06 124L142.22 124L142.22 54.40L117.74 54.40L117.74 40L182.54 40L182.54 54.40L158.06 54.40L158.06 124M252.86 124L198.14 124L198.14 40L252.14 40L252.14 54.40L213.98 54.40L213.98 74.44L248.78 74.44L248.78 88.84L213.98 88.84L213.98 109.60L252.86 109.60L252.86 124M279.98 124L263.66 124L285.74 40L313.34 40L335.42 124L319.10 124L314.54 105.52L284.54 105.52L279.98 124M298.46 49.96L288.26 90.88L310.82 90.88L300.62 49.96L298.46 49.96M382.46 124L347.90 124L347.90 110.08L358.94 110.08L358.94 53.92L347.90 53.92L347.90 40L382.46 40Q399.38 40 408.20 48.58Q417.02 57.16 417.02 74.08L417.02 89.92Q417.02 106.84 408.20 115.42Q399.38 124 382.46 124M374.78 54.40L374.78 109.60L382.70 109.60Q392.30 109.60 396.74 104.56Q401.18 99.52 401.18 90.40L401.18 73.60Q401.18 64.36 396.74 59.38Q392.30 54.40 382.70 54.40L374.78 54.40M450.86 124L435.02 124L435.02 40L487.82 40L487.82 54.40L450.86 54.40L450.86 74.68L484.94 74.68L484.94 89.08L450.86 89.08L450.86 124M509.18 124L492.86 124L514.94 40L542.54 40L564.62 124L548.30 124L543.74 105.52L513.74 105.52L509.18 124M527.66 49.96L517.46 90.88L540.02 90.88L529.82 49.96L527.66 49.96M608.66 125.68Q598.94 125.68 591.50 122.20Q584.06 118.72 579.86 112.24Q575.66 105.76 575.66 96.64L575.66 93.28L591.26 93.28L591.26 96.64Q591.26 104.20 595.94 107.98Q600.62 111.76 608.66 111.76Q616.82 111.76 620.84 108.52Q624.86 105.28 624.86 100.24Q624.86 96.76 622.88 94.60Q620.90 92.44 617.12 91.06Q613.34 89.68 607.94 88.48L605.18 87.88Q596.54 85.96 590.36 83.02Q584.18 80.08 580.88 75.28Q577.58 70.48 577.58 62.80Q577.58 55.12 581.24 49.66Q584.90 44.20 591.56 41.26Q598.22 38.32 607.22 38.32Q616.22 38.32 623.24 41.38Q630.26 44.44 634.28 50.50Q638.30 56.56 638.30 65.68L638.30 69.28L622.70 69.28L622.70 65.68Q622.70 60.88 620.84 57.94Q618.98 55 615.50 53.62Q612.02 52.24 607.22 52.24Q600.02 52.24 596.60 54.94Q593.18 57.64 593.18 62.32Q593.18 65.44 594.80 67.60Q596.42 69.76 599.66 71.20Q602.90 72.64 607.94 73.72L610.70 74.32Q619.70 76.24 626.36 79.24Q633.02 82.24 636.74 87.16Q640.46 92.08 640.46 99.76Q640.46 107.44 636.56 113.26Q632.66 119.08 625.52 122.38Q618.38 125.68 608.66 125.68M689.66 124L673.82 124L673.82 54.40L649.34 54.40L649.34 40L714.14 40L714.14 54.40L689.66 54.40"/><path d="M120.05 182L116.38 182L116.38 158.20L126.37 158.20Q128.58 158.20 130.27 158.97Q131.95 159.73 132.88 161.16Q133.82 162.59 133.82 164.56L133.82 164.93Q133.82 167.18 132.75 168.52Q131.68 169.86 130.15 170.41L130.15 170.95Q131.44 171.02 132.22 171.82Q133 172.62 133 174.11L133 182L129.30 182L129.30 174.62Q129.30 173.70 128.82 173.16Q128.35 172.62 127.29 172.62L120.05 172.62L120.05 182M120.05 161.53L120.05 169.28L125.97 169.28Q127.94 169.28 129.03 168.28Q130.11 167.28 130.11 165.54L130.11 165.27Q130.11 163.54 129.04 162.53Q127.97 161.53 125.97 161.53L120.05 161.53M171.73 182L156.57 182L156.57 158.20L171.56 158.20L171.56 161.53L160.24 161.53L160.24 168.37L170.61 168.37L170.61 171.70L160.24 171.70L160.24 178.67L171.73 178.67L171.73 182M202.36 182.48Q199.68 182.48 197.60 181.52Q195.53 180.57 194.36 178.72Q193.18 176.87 193.18 174.21L193.18 173.36L196.82 173.36L196.82 174.21Q196.82 176.73 198.33 177.99Q199.85 179.25 202.36 179.25Q204.91 179.25 206.21 178.18Q207.50 177.10 207.50 175.40Q207.50 174.28 206.89 173.57Q206.27 172.85 205.15 172.43Q204.03 172 202.47 171.63L201.21 171.32Q198.93 170.78 197.25 169.98Q195.56 169.18 194.65 167.86Q193.73 166.53 193.73 164.46Q193.73 162.35 194.76 160.85Q195.80 159.36 197.64 158.54Q199.47 157.72 201.96 157.72Q204.44 157.72 206.39 158.57Q208.35 159.42 209.47 161.09Q210.59 162.76 210.59 165.27L210.59 166.50L206.95 166.50L206.95 165.27Q206.95 163.74 206.32 162.79Q205.70 161.84 204.57 161.40Q203.45 160.95 201.96 160.95Q199.78 160.95 198.57 161.85Q197.37 162.76 197.37 164.35Q197.37 165.44 197.89 166.14Q198.42 166.84 199.44 167.28Q200.46 167.72 201.99 168.06L203.25 168.37Q205.56 168.88 207.33 169.68Q209.10 170.47 210.12 171.83Q211.14 173.19 211.14 175.34Q211.14 177.48 210.06 179.08Q208.99 180.67 207.02 181.57Q205.05 182.48 202.36 182.48M248.84 182L233.68 182L233.68 158.20L248.67 158.20L248.67 161.53L237.35 161.53L237.35 168.37L247.72 168.37L247.72 171.70L237.35 171.70L237.35 178.67L248.84 178.67L248.84 182M273.42 182L269.62 182L276.42 158.20L282.88 158.20L289.64 182L285.87 182L284.30 176.39L274.99 176.39L273.42 182M279.37 160.48L275.91 172.99L283.39 172.99L279.92 160.48L279.37 160.48M315.24 182L311.57 182L311.57 158.20L321.57 158.20Q323.78 158.20 325.46 158.97Q327.14 159.73 328.08 161.16Q329.01 162.59 329.01 164.56L329.01 164.93Q329.01 167.18 327.94 168.52Q326.87 169.86 325.34 170.41L325.34 170.95Q326.63 171.02 327.42 171.82Q328.20 172.62 328.20 174.11L328.20 182L324.49 182L324.49 174.62Q324.49 173.70 324.02 173.16Q323.54 172.62 322.49 172.62L315.24 172.62L315.24 182M315.24 161.53L315.24 169.28L321.16 169.28Q323.13 169.28 324.22 168.28Q325.31 167.28 325.31 165.54L325.31 165.27Q325.31 163.54 324.24 162.53Q323.17 161.53 321.16 161.53L315.24 161.53M360.60 182.48Q356.25 182.48 353.70 180.01Q351.15 177.55 351.15 172.89L351.15 167.31Q351.15 162.65 353.70 160.19Q356.25 157.72 360.60 157.72Q364.88 157.72 367.21 160.10Q369.54 162.48 369.54 166.60L369.54 166.80L365.90 166.80L365.90 166.50Q365.90 164.08 364.59 162.55Q363.29 161.02 360.60 161.02Q357.88 161.02 356.35 162.67Q354.82 164.32 354.82 167.24L354.82 172.96Q354.82 175.85 356.35 177.51Q357.88 179.18 360.60 179.18Q363.29 179.18 364.59 177.63Q365.90 176.08 365.90 173.70L365.90 173.13L369.54 173.13L369.54 173.60Q369.54 177.72 367.21 180.10Q364.88 182.48 360.60 182.48M395.99 182L392.32 182L392.32 158.20L395.99 158.20L395.99 168.40L405.99 168.40L405.99 158.20L409.66 158.20L409.66 182L405.99 182L405.99 171.73L395.99 171.73L395.99 182M468.96 182.48Q466.41 182.48 464.40 181.37Q462.40 180.27 461.24 178.12Q460.08 175.98 460.08 172.89L460.08 167.31Q460.08 162.65 462.63 160.19Q465.18 157.72 469.54 157.72Q473.82 157.72 476.13 160.05Q478.44 162.38 478.44 166.29L478.44 166.46L474.81 166.46L474.81 166.19Q474.81 164.73 474.23 163.56Q473.65 162.38 472.49 161.70Q471.34 161.02 469.54 161.02Q466.81 161.02 465.29 162.67Q463.75 164.32 463.75 167.24L463.75 172.96Q463.75 175.85 465.29 177.53Q466.81 179.21 469.57 179.21Q472.29 179.21 473.55 177.72Q474.81 176.22 474.81 173.84L474.81 173.40L468.41 173.40L468.41 170.24L478.44 170.24L478.44 182L475.04 182L475.04 179.59L474.50 179.59Q474.19 180.23 473.60 180.91Q473 181.59 471.90 182.03Q470.79 182.48 468.96 182.48M505.54 182L501.87 182L501.87 158.20L511.87 158.20Q514.08 158.20 515.76 158.97Q517.44 159.73 518.38 161.16Q519.31 162.59 519.31 164.56L519.31 164.93Q519.31 167.18 518.24 168.52Q517.17 169.86 515.64 170.41L515.64 170.95Q516.93 171.02 517.71 171.82Q518.50 172.62 518.50 174.11L518.50 182L514.79 182L514.79 174.62Q514.79 173.70 514.31 173.16Q513.84 172.62 512.78 172.62L505.54 172.62L505.54 182M505.54 161.53L505.54 169.28L511.46 169.28Q513.43 169.28 514.52 168.28Q515.61 167.28 515.61 165.54L515.61 165.27Q515.61 163.54 514.53 162.53Q513.46 161.53 511.46 161.53L505.54 161.53M551 182.48Q546.61 182.48 544.03 180.01Q541.45 177.55 541.45 172.89L541.45 167.31Q541.45 162.65 544.03 160.19Q546.61 157.72 551 157.72Q555.38 157.72 557.99 160.19Q560.59 162.65 560.59 167.31L560.59 172.89Q560.59 177.55 557.99 180.01Q555.38 182.48 551 182.48M551 179.18Q553.82 179.18 555.35 177.53Q556.88 175.88 556.88 173.02L556.88 167.18Q556.88 164.32 555.35 162.67Q553.82 161.02 551 161.02Q548.25 161.02 546.68 162.67Q545.12 164.32 545.12 167.18L545.12 173.02Q545.12 175.88 546.68 177.53Q548.25 179.18 551 179.18M592.55 182.48Q589.73 182.48 587.70 181.46Q585.68 180.44 584.57 178.51Q583.47 176.59 583.47 173.84L583.47 158.20L587.18 158.20L587.18 173.94Q587.18 176.46 588.57 177.82Q589.96 179.18 592.55 179.18Q595.13 179.18 596.53 177.82Q597.92 176.46 597.92 173.94L597.92 158.20L601.59 158.20L601.59 173.84Q601.59 176.59 600.50 178.51Q599.42 180.44 597.38 181.46Q595.34 182.48 592.55 182.48M628.76 182L625.09 182L625.09 158.20L634.54 158.20Q636.71 158.20 638.43 159.07Q640.15 159.93 641.12 161.51Q642.09 163.10 642.09 165.31L642.09 165.75Q642.09 167.96 641.08 169.56Q640.08 171.15 638.38 172Q636.68 172.85 634.54 172.85L628.76 172.85L628.76 182M628.76 161.53L628.76 169.52L634.16 169.52Q636.10 169.52 637.26 168.50Q638.41 167.48 638.41 165.71L638.41 165.37Q638.41 163.57 637.26 162.55Q636.10 161.53 634.16 161.53"/></g></svg>