<svg xmlns="http://www.w3.org/2000/svg" viewBox="0 0 272 40" fill="none" stroke="#0D0D0D" stroke-width="1.7" stroke-linecap="round" stroke-linejoin="round"><g transform="translate(8 8)"><rect x="8" y="3" width="8" height="3" rx="1"/><path d="M9 6v12a3 3 0 0 0 6 0V6"/><path d="M9 13h6"/></g><g transform="translate(41 8)"><path d="M10 3h4"/><path d="M11 3v5L6.5 17a2.4 2.4 0 0 0 2.2 3.4h6.6a2.4 2.4 0 0 0 2.2-3.4L13 8V3"/><path d="M8.5 14h7"/></g><g transform="translate(74 8)"><path d="M12 4c3 4 5.5 6.8 5.5 9.6a5.5 5.5 0 1 1-11 0C6.5 10.8 9 8 12 4Z"/></g><g transform="translate(107 8)"><path d="M12 3v18"/><path d="M5 7.5l14 9"/><path d="M19 7.5l-14 9"/></g><g transform="translate(140 8)"><path d="M12 3l7 3v5c0 4.5-3 7.5-7 9-4-1.5-7-4.5-7-9V6l7-3Z"/><path d="M9 11.5l2.2 2.2 4.3-4.2"/></g><g transform="translate(173 8)"><path d="M7 3h7l4 4v14H7V3Z"/><path d="M14 3v4h4"/><path d="M10 12h5M10 16h5"/></g><g transform="translate(206 8)"><rect x="4" y="4" width="6" height="6"/><rect x="14" y="4" width="6" height="6"/><rect x="4" y="14" width="6" height="6"/><path d="M14 14h3v3M20 14v6h-6"/></g><g transform="translate(239 8)"><path d="M8 21L9.3 4"/><path d="M9.3 4l9 1.5-2.2 2.8 2.8 2.9-9.9 1.6"/></g></svg>